<svg width="65" height="66" viewBox="0 0 65 66" fill="none" xmlns="http://www.w3.org/2000/svg">
<g id="BellPepper" clip-path="url(#clip0_40_94)">
<path id="Vector" d="M32.8864 18.3486C32.4556 18.3542 32.0259 18.41 31.6094 18.5142C31.1324 17.5022 30.3181 16.7083 29.3103 16.2727L25.4892 14.6098C24.7751 14.2982 24.0011 14.1452 23.2163 14.1605C22.4315 14.1758 21.6531 14.359 20.9304 14.6986C20.2076 15.0383 19.5564 15.5268 19.0181 16.1333C18.4797 16.7398 18.066 17.451 17.8031 18.2217L10.1613 40.7403C9.07784 43.9437 10.5275 47.412 13.4965 48.7041C14.3902 49.0937 15.367 49.2586 16.3483 49.1855C17.3297 49.1123 18.2882 48.8031 19.1467 48.2828C20.0051 50.5057 21.681 52.2681 23.8191 53.1963C25.9558 54.1289 28.3883 54.1544 30.6005 53.2673C30.8048 54.2499 31.2316 55.1618 31.8467 55.9297C32.4617 56.6976 33.2478 57.3 34.1417 57.6885C37.1106 58.9806 40.6367 57.6777 42.2425 54.7015L53.493 33.7705C53.882 33.0542 54.1244 32.2669 54.2045 31.459C54.2847 30.6511 54.2009 29.8403 53.9585 29.0785C53.7162 28.3167 53.3205 27.6206 52.7969 27.0347C52.2733 26.4488 51.6333 25.986 50.9177 25.6759L47.0965 24.013C46.0464 23.556 44.9176 23.5314 43.8907 23.8588C43.6808 23.48 43.4291 23.1284 43.1402 22.8109C43.1073 21.9146 42.8942 21.0411 42.5146 20.2454C42.1349 19.4498 41.5968 18.7492 40.9342 18.1879C41.018 18.1081 41.1053 18.0316 41.1974 17.9589C42.0537 17.306 43.1723 17.1774 44.1345 17.5961L44.2032 17.626C44.9592 17.955 45.8591 17.5775 46.2031 16.7871C46.5471 15.9967 46.21 15.0808 45.454 14.7518L45.399 14.7279C43.4747 13.8905 41.19 14.144 39.4786 15.4845C38.9691 15.8732 38.5197 16.3405 38.147 16.869C37.2312 16.7014 36.2841 16.7472 35.3742 17.0031C34.4644 17.259 33.6146 17.7186 32.8864 18.3486ZM28.0595 19.1469C28.465 19.3234 28.7627 19.6461 28.9205 20.031C28.3674 20.576 27.9222 21.2261 27.6111 21.943L19.3244 40.9847C18.7659 42.268 18.5056 43.6025 18.5115 44.9075C18.0464 45.4488 17.4315 45.8297 16.7551 45.9954C16.0788 46.1612 15.3758 46.1032 14.7473 45.8299C14.0016 45.502 13.4104 44.8952 13.0892 44.128C12.7679 43.3608 12.7398 42.4883 13.0102 41.681L20.6507 19.1652C20.7738 18.8058 20.9672 18.4743 21.2187 18.1916C21.4702 17.909 21.7742 17.6814 22.1115 17.5234C22.4489 17.3653 22.8121 17.2802 23.1782 17.2734C23.5443 17.2666 23.9054 17.3384 24.2384 17.484L28.0595 19.1469ZM35.8186 48.1627L44.1052 29.121C44.4181 28.4048 44.5904 27.6359 44.612 26.8597C45.0026 26.7134 45.4402 26.7108 45.8457 26.8872L49.6669 28.5501C50.0004 28.694 50.2989 28.9092 50.5431 29.1818C50.7873 29.4545 50.9718 29.7786 51.0849 30.1334C51.198 30.4882 51.2371 30.8658 51.1998 31.2422C51.1625 31.6185 51.0495 31.9852 50.8681 32.3188L39.6145 53.2571C39.2079 54.0054 38.5493 54.5809 37.7687 54.8687C36.988 55.1564 36.1407 55.137 35.3925 54.8143C34.073 54.2401 33.3441 52.8495 33.5034 51.4317C34.4901 50.5199 35.28 49.4045 35.8186 48.1627ZM22.0735 42.181L30.3601 23.1393C30.9636 21.7525 32.5335 21.094 33.86 21.6712L40.0453 24.3629C41.373 24.9408 41.9597 26.5379 41.3562 27.9247L33.0696 46.9663C31.6906 50.1351 28.1021 51.6416 25.0699 50.3221C22.0391 49.0031 20.6944 45.3498 22.0735 42.181Z" fill="black"/>
</g>
<defs>
<clipPath id="clip0_40_94">
<rect width="47.969" height="50.1534" fill="white" transform="translate(20.5835 0.51001) rotate(23.5179)"/>
</clipPath>
</defs>
</svg>
