<svg width="61" height="60" viewBox="0 0 61 60" fill="none" xmlns="http://www.w3.org/2000/svg">
<g id="Cheese" clip-path="url(#clip0_37_47)">
<g id="Group">
<g id="Clip path group">
<mask id="mask0_37_47" style="mask-type:luminance" maskUnits="userSpaceOnUse" x="0" y="0" width="61" height="60">
<g id="fluentEmojiHighContrastCheeseWedge0">
<path id="Vector" d="M18.8391 0L60.1011 17.9566L42.1445 59.2187L0.882437 41.2621L18.8391 0Z" fill="white"/>
</g>
</mask>
<g mask="url(#mask0_37_47)">
<g id="Group_2">
<path id="Vector_2" d="M41.1821 34.9288C40.636 36.1839 39.6136 37.1706 38.3399 37.6719C37.0662 38.1731 35.6456 38.1479 34.3905 37.6017C33.1354 37.0555 32.1487 36.0331 31.6475 34.7594C31.1462 33.4858 31.1715 32.0651 31.7176 30.81C32.2638 29.555 33.2862 28.5683 34.5599 28.067C35.8336 27.5658 37.2542 27.591 38.5093 28.1372C39.7644 28.6834 40.7511 29.7058 41.2523 30.9795C41.7536 32.2531 41.7283 33.6738 41.1821 34.9288ZM22.7621 35.4245C23.4871 35.74 24.3078 35.7545 25.0435 35.465C25.7793 35.1754 26.3699 34.6055 26.6854 33.8805C27.0009 33.1555 27.0155 32.3348 26.7259 31.5991C26.4364 30.8633 25.8664 30.2727 25.1414 29.9572C24.4164 29.6417 23.5957 29.6271 22.86 29.9167C22.1242 30.2062 21.5337 30.7762 21.2181 31.5012C20.9026 32.2262 20.8881 33.0469 21.1776 33.7826C21.4672 34.5184 22.0371 35.1089 22.7621 35.4245ZM30.3104 40.4577C30.1407 40.8475 29.8231 41.154 29.4275 41.3097C29.0319 41.4654 28.5906 41.4576 28.2007 41.2879C27.8109 41.1183 27.5044 40.8007 27.3487 40.4051C27.193 40.0094 27.2008 39.5681 27.3705 39.1783C27.5401 38.7884 27.8577 38.4819 28.2533 38.3262C28.649 38.1705 29.0903 38.1784 29.4801 38.348C29.87 38.5177 30.1765 38.8353 30.3322 39.2309C30.4879 39.6265 30.48 40.0678 30.3104 40.4577Z" fill="black"/>
<path id="Vector_3" d="M54.0841 28.259C54.4698 27.3738 54.5756 26.3919 54.3874 25.4449C54.1992 24.4979 53.726 23.6311 53.0312 22.9606L43.3198 11.353C42.5516 10.435 41.529 9.76479 40.3807 9.42664C39.2325 9.08849 38.0098 9.09751 36.8667 9.45256L17.4139 15.5566C16.6519 15.6962 15.936 16.0212 15.3292 16.5028C14.7224 16.9844 14.2435 17.6079 13.9346 18.3183L8.87865 29.9361C8.581 30.6201 8.56725 31.3943 8.84041 32.0884C9.11358 32.7825 9.65128 33.3396 10.3352 33.6373C10.4191 33.6738 10.4597 33.7742 10.4226 33.8594C10.3862 33.9432 10.2844 33.9832 10.2006 33.9467C9.51661 33.6491 8.74242 33.6353 8.04832 33.9085C7.35421 34.1817 6.79705 34.7194 6.4994 35.4033L5.3715 37.9951C4.17627 40.7416 5.80057 43.9376 8.79332 44.5176L8.79848 44.5199L40.2747 50.6877L40.2887 50.6907C41.3438 50.8929 42.4362 50.7305 43.3868 50.2301C44.3374 49.7298 45.0898 48.9213 45.5205 47.9371L50.3576 36.8222C50.5111 36.4694 50.5907 36.0888 50.5913 35.7041C50.5919 35.3193 50.5136 34.9385 50.3611 34.5852C50.2087 34.2319 49.9853 33.9137 49.705 33.6502C49.4246 33.3867 49.0931 33.1835 48.7311 33.0532C48.6483 32.9956 48.5879 32.9111 48.5603 32.8141C48.5326 32.7171 48.5394 32.6135 48.5793 32.5209C48.6753 32.3004 48.9338 32.1998 49.153 32.2952L49.2433 32.3344C49.9272 32.6321 50.7014 32.6458 51.3955 32.3727C52.0896 32.0995 52.6468 31.5618 52.9444 30.8778L54.0841 28.259ZM11.4581 31.0571L16.1465 20.2838C16.5253 20.6573 17.0126 20.9261 17.5633 21.0385L50.4719 27.7069C50.7277 27.7569 50.9843 27.7734 51.2364 27.7543L50.3667 29.753L50.2764 29.7137C49.4917 29.3993 48.6153 29.4031 47.8333 29.7242C47.0513 30.0453 46.4252 30.6585 46.0879 31.4336C45.7506 32.2088 45.7286 33.0849 46.0266 33.876C46.3245 34.6671 46.919 35.3109 47.6839 35.6709C47.7097 35.6821 47.7355 35.6934 47.7798 35.6973L42.9427 46.8123C42.5836 47.6375 41.6947 48.0942 40.8167 47.9268L9.33276 41.7557C8.13012 41.5237 7.46331 40.2366 7.95151 39.1148L9.07941 36.5231C9.79937 36.8104 10.6029 36.8062 11.3198 36.5113C12.0367 36.2163 12.6106 35.6539 12.92 34.9431C13.2293 34.2323 13.2497 33.429 12.977 32.7034C12.7042 31.9777 12.1591 31.3881 11.4581 31.0571Z" fill="black"/>
</g>
</g>
</g>
</g>
</g>
<defs>
<clipPath id="clip0_37_47">
<rect width="45" height="45" fill="white" transform="translate(18.8391) rotate(23.5179)"/>
</clipPath>
</defs>
</svg>
