<svg width="64" height="64" viewBox="0 0 64 64" fill="none" xmlns="http://www.w3.org/2000/svg">
<g id="ep:sugar" clip-path="url(#clip0_41_257)">
<path id="Vector" d="M47.199 30.3293L47.3066 30.6027C47.8828 32.0674 47.8536 33.7009 47.2256 35.1441C46.5975 36.5873 45.422 37.722 43.9575 38.2986L27.3873 44.8175C26.6618 45.1032 25.8871 45.2432 25.1076 45.2294C24.328 45.2156 23.5588 45.0484 22.8439 44.7373C22.129 44.4261 21.4823 43.9772 20.941 43.4161C20.3996 42.8551 19.974 42.1928 19.6887 41.4672L19.5811 41.1938L16.7267 45.4993C16.427 45.9523 16.0089 46.3143 15.5177 46.546C15.0265 46.7777 14.4812 46.8702 13.9411 46.8134C13.401 46.7566 12.8869 46.5527 12.4546 46.2239C12.0224 45.8952 11.6887 45.4541 11.4898 44.9487L8.05604 36.2236C7.85717 35.7183 7.80077 35.1681 7.89298 34.6329C7.98519 34.0977 8.22249 33.5981 8.57901 33.1884C8.93554 32.7788 9.39764 32.4748 9.91497 32.3096C10.4323 32.1444 10.9851 32.1243 11.513 32.2516L16.5377 33.4608L16.4286 33.1835C16.1429 32.458 16.003 31.6834 16.0167 30.9038C16.0305 30.1242 16.1977 29.355 16.5089 28.6401C16.82 27.9252 17.2689 27.2786 17.83 26.7372C18.3911 26.1958 19.0533 25.7703 19.7789 25.4849L36.3464 18.9647C37.0719 18.6791 37.8465 18.5391 38.6261 18.5529C39.4056 18.5667 40.1749 18.7339 40.8898 19.045C41.6047 19.3561 42.2513 19.8051 42.7927 20.3661C43.3341 20.9272 43.7596 21.5895 44.045 22.3151L44.1526 22.5884L47.0034 18.2911C47.3036 17.8383 47.7223 17.4765 48.2138 17.2453C48.7054 17.014 49.251 16.9221 49.7913 16.9796C50.3315 17.037 50.8455 17.2417 51.2775 17.5712C51.7094 17.9007 52.0425 18.3425 52.2407 18.8483L55.6569 27.569C55.8541 28.0741 55.9092 28.6235 55.8162 29.1577C55.7233 29.6918 55.4857 30.1903 55.1294 30.599C54.7731 31.0077 54.3116 31.3109 53.7951 31.4759C53.2786 31.6408 52.7268 31.6611 52.1996 31.5345L47.199 30.3293ZM20.1866 28.6239L39.2004 36.8984L39.1589 36.9936L42.8693 35.5334C43.5898 35.2511 44.1711 34.6977 44.4885 33.9918L26.3373 26.0927L20.8644 28.2488C20.6222 28.3431 20.3934 28.4688 20.1838 28.6227L20.1866 28.6239ZM19.0023 31.3452C19.0317 31.5975 19.0942 31.848 19.1898 32.0968L22.4499 40.3805C22.7382 41.1128 23.3055 41.7006 24.0271 42.0146C24.7487 42.3286 25.5655 42.3432 26.2978 42.0551L35.3928 38.4781L19.0023 31.3452ZM44.1134 30.5919L41.2838 23.4017C40.9954 22.6695 40.4281 22.0817 39.7065 21.7677C38.9849 21.4537 38.1682 21.4391 37.4358 21.7272L30.2429 24.5557L44.1134 30.5919ZM10.8173 35.137L14.251 43.862L17.8313 38.4612C17.9366 38.302 18.002 38.1197 18.0218 37.9298C18.0417 37.7399 18.0154 37.5481 17.9453 37.3705C17.8752 37.1929 17.7633 37.0348 17.6191 36.9097C17.4749 36.7846 17.3027 36.6961 17.117 36.6518L10.8173 35.137ZM49.4779 19.9311L45.9 25.3265C45.7949 25.4855 45.7297 25.6675 45.7098 25.8571C45.6899 26.0467 45.716 26.2382 45.7858 26.4156C45.8556 26.593 45.9671 26.7509 46.1108 26.8761C46.2546 27.0013 46.4263 27.09 46.6116 27.1348L52.8941 28.6518L49.4752 19.9299L49.4779 19.9311Z" fill="black"/>
</g>
<defs>
<clipPath id="clip0_41_257">
<rect width="47.4854" height="47.4854" fill="white" transform="translate(19.5705 0.646484) rotate(23.5179)"/>
</clipPath>
</defs>
</svg>
