<svg width="54" height="54" viewBox="0 0 54 54" fill="none" xmlns="http://www.w3.org/2000/svg">
<g id="game-icons:flour" clip-path="url(#clip0_40_102)">
<path id="Vector" d="M24.0827 8.92666C22.5897 9.36587 20.7051 11.5598 19.3559 13.7052C19.075 14.1513 18.8242 14.5798 18.594 14.988C23.2123 13.9638 27.4563 12.582 31.6451 11.1245C31.1237 10.8358 30.5267 10.5248 29.8703 10.2193C27.8305 9.26751 25.3657 8.54892 24.0827 8.92666ZM38.4124 10.355C30.4485 13.1245 22.6772 16.1906 13.0085 17.5363C12.6971 18.0638 12.5758 18.4881 12.5913 18.806C12.6128 19.1137 12.7252 19.3708 13.0116 19.6598C22.7816 19.2445 32.0141 16.8229 39.4458 12.0022C39.4254 11.7638 39.3298 11.537 39.1518 11.2626C38.9716 10.98 38.7075 10.6764 38.4124 10.355ZM38.4113 14.4123C31.6941 18.2929 23.7781 20.3966 15.4519 21.0344C15.5195 29.0519 13.5836 36.8053 16.7629 44.4243L17.0444 45.0976L16.3809 45.406C15.6172 45.7499 14.6694 46.7613 14.2057 47.6691C13.973 48.1232 13.8663 48.5436 13.8728 48.7595C13.8771 48.9673 13.8269 48.8937 13.9475 48.931C14.4444 49.1026 15.7708 48.9126 17.0813 48.3351C18.3917 47.7576 19.7151 46.8545 20.4503 46.0568L20.6526 45.8372L20.9522 45.8179C28.3944 45.2602 35.0164 44.2084 41.6624 40.582L41.9878 40.399L42.333 40.5503C42.888 40.8021 44.441 40.7168 45.973 40.3585C47.3669 40.0372 48.7076 39.5822 49.6227 39.2935C49.4681 39.0738 49.1893 38.748 48.8146 38.4218C48.3428 38.0259 47.7774 37.6376 47.2689 37.3646C46.7524 37.0939 46.2631 36.9899 46.2019 36.9889L45.4419 37.0445L45.3944 36.2824C44.9232 28.6429 43.6402 21.1252 38.4113 14.4123ZM26.7945 20.6069C31.6113 19.3163 36.6115 22.7387 38.0458 28.0916C39.4801 33.4445 36.861 38.9085 32.0442 40.1991C27.2274 41.4898 22.2273 38.0674 20.7929 32.7145C19.3586 27.3616 21.9777 21.8976 26.7945 20.6069ZM27.1863 22.069C23.2792 23.1159 21.0057 27.6602 22.2551 32.3227C23.4021 36.6034 27.0704 39.3118 30.6906 38.9164L30.0021 35.6969C27.3696 35.8799 25.9116 33.3627 25.6358 32.3658C26.413 32.2446 28.2533 32.387 29.5303 33.4814L29.1048 31.4711C26.4665 31.6644 25.0063 29.1391 24.7305 28.1422C25.4995 28.0232 27.3561 28.1613 28.6374 29.2718L28.2141 27.2697C26.6072 27.056 25.6882 25.4131 25.4972 24.7329C26.1644 24.6238 27.9013 24.8027 28.8058 26.0664C29.1312 24.5515 30.6323 23.6878 31.274 23.5159C31.3924 24.2503 31.209 26.1974 29.7051 27.0182L30.1148 28.9369C30.8296 27.4134 32.4569 26.5333 33.2226 26.3369C33.3641 27.3524 33.0702 30.2519 30.5865 31.1524L31.0163 33.1789C31.729 31.6473 33.3644 30.765 34.1198 30.5626C34.2776 31.5738 33.9777 34.4836 31.4838 35.3782L32.1658 38.5734C35.7546 37.2809 37.7764 32.9347 36.5837 28.4834C35.3344 23.8209 31.0933 21.0221 27.1863 22.069Z" fill="black"/>
</g>
<defs>
<clipPath id="clip0_40_102">
<rect width="43.0558" height="43.0558" fill="white" transform="translate(0.75737 11.4861) rotate(-15)"/>
</clipPath>
</defs>
</svg>
