<svg width="83" height="82" viewBox="0 0 83 82" fill="none" xmlns="http://www.w3.org/2000/svg">
<g id="Heart">
<path id="Vector" d="M49.7142 61.8597L49.7102 61.8629C47.9064 63.2879 46.3538 64.4903 44.8752 65.3544C43.3954 66.2193 42.3203 66.5418 41.5 66.5418C40.6805 66.5418 39.6058 66.2191 38.1248 65.3536C36.645 64.4887 35.0924 63.2868 33.2865 61.8637C32.2724 61.064 31.246 60.2724 30.2182 59.4797C25.9414 56.1811 21.6379 52.862 18.0742 48.8495C13.774 44.0077 10.8333 38.4334 10.8333 31.2182C10.8333 24.2199 14.7863 18.3999 20.1059 15.9686C25.2047 13.6383 32.1858 14.1661 38.9779 21.2253L41.4997 23.8464L44.0219 21.2256C50.8138 14.1681 57.7948 13.6407 62.8939 15.9715C68.2138 18.4032 72.1667 24.2233 72.1667 31.2216C72.1667 38.4352 69.2268 44.0096 64.9271 48.8508C61.3575 52.8699 57.0442 56.1939 52.7591 59.4961C51.7391 60.2822 50.7206 61.0671 49.7142 61.8597Z" fill="#E93037" stroke="black" stroke-width="7"/>
</g>
</svg>
