<svg width="20" height="21" viewBox="0 0 20 21" fill="none" xmlns="http://www.w3.org/2000/svg">
<g id="mdi:location">
<path id="Vector" d="M9.99999 10.0833C9.44746 10.0833 8.91755 9.8638 8.52685 9.4731C8.13615 9.0824 7.91666 8.55249 7.91666 7.99996C7.91666 7.44742 8.13615 6.91752 8.52685 6.52682C8.91755 6.13612 9.44746 5.91663 9.99999 5.91663C10.5525 5.91663 11.0824 6.13612 11.4731 6.52682C11.8638 6.91752 12.0833 7.44742 12.0833 7.99996C12.0833 8.27355 12.0294 8.54446 11.9247 8.79722C11.82 9.04998 11.6666 9.27964 11.4731 9.4731C11.2797 9.66655 11.05 9.82001 10.7972 9.92471C10.5445 10.0294 10.2736 10.0833 9.99999 10.0833ZM9.99999 2.16663C8.45289 2.16663 6.96916 2.78121 5.8752 3.87517C4.78124 4.96913 4.16666 6.45286 4.16666 7.99996C4.16666 12.375 9.99999 18.8333 9.99999 18.8333C9.99999 18.8333 15.8333 12.375 15.8333 7.99996C15.8333 6.45286 15.2187 4.96913 14.1248 3.87517C13.0308 2.78121 11.5471 2.16663 9.99999 2.16663Z" fill="#E93037"/>
</g>
</svg>
