<svg width="67" height="66" viewBox="0 0 67 66" fill="none" xmlns="http://www.w3.org/2000/svg">
<g id="mdi:hot">
<path id="Vector" d="M45.0906 36.0338C44.9014 35.2725 44.5839 34.5459 44.3045 33.8359C43.5264 32.1395 42.4364 30.692 41.7403 28.9633C40.1142 24.9515 41.4819 20.0926 44.8214 17.3592C42.8233 17.0101 40.8134 17.3123 38.9905 17.8089C32.34 19.622 27.3603 25.7605 27.0733 32.7644C27.0666 32.9878 27.0599 33.2112 26.9523 33.4585C26.7701 33.8771 26.3191 34.1335 25.8723 34.1201C25.3518 34.1199 24.9449 33.807 24.7158 33.3453C24.6463 33.2082 24.6036 33.059 24.5902 32.9059C23.6242 29.2492 24.9792 25.1996 27.7833 22.7084C23.4796 23.9133 19.8436 27.5361 18.2941 31.7727C17.9942 32.7737 17.6943 33.7748 17.6038 34.8669C17.3733 36.1245 17.3903 37.4897 17.5222 38.7466C18.1447 42.9327 20.676 46.8405 24.2935 48.9806C28.1419 51.2663 32.8221 52.4205 37.1681 50.9624C42.0247 49.3192 45.4451 44.7878 45.5444 39.6712L45.5124 39.0688C45.4937 38.0197 45.0906 36.0338 45.0906 36.0338ZM33.8612 45.4045C33.1297 45.6293 32.0391 45.7431 31.2713 45.6353C28.809 45.4689 27.1417 43.476 26.4324 41.6737C28.9285 42.1263 31.0081 41.0398 32.1447 39.5202C33.1306 38.1388 33.0682 36.618 33.4584 35.0452C33.8429 33.5378 34.4026 32.3556 35.4877 31.2663C35.5345 32.1467 35.6004 33.0353 35.8087 33.8049C36.4458 36.3453 38.3837 38.1844 37.7523 40.9874C37.7125 41.2869 37.6346 41.5699 37.5104 41.8553C36.8885 43.4404 35.4583 44.8548 33.8612 45.4045Z" fill="black"/>
</g>
</svg>
