<svg width="60" height="60" viewBox="0 0 60 60" fill="none" xmlns="http://www.w3.org/2000/svg">
<g id="Onion" clip-path="url(#clip0_40_77)">
<path id="Vector" d="M33.6652 10.9374C34.4082 9.22993 36.8933 9.32413 37.47 11.1322L38.2293 13.5255L40.4976 12.4513C42.2144 11.6398 43.977 13.3941 43.2339 15.1016L42.2137 17.4457C41.8023 18.3911 41.9942 19.4908 42.7146 20.272C47.378 25.184 48.9291 32.6129 46.0509 39.2265C42.6639 47.0095 34.2667 51.0796 26.2717 49.2823L26.2661 49.2951C25.8815 50.179 24.852 50.5841 23.9681 50.1995L21.2013 48.9954C20.3174 48.6108 19.9123 47.5813 20.2969 46.6974L20.2997 46.691C13.5894 42.0781 10.7743 32.9397 14.0967 25.3052C16.9765 18.6878 23.4681 14.7742 30.2417 14.841C30.7487 14.8452 31.2458 14.701 31.6719 14.4262C32.0979 14.1514 32.4342 13.758 32.6394 13.2944L33.6652 10.9374ZM35.4193 13.9084L35.2019 14.408C34.7785 15.3737 34.0812 16.1941 33.1963 16.7676C32.3115 17.3411 31.2779 17.6426 30.2234 17.6348L30.2172 17.6351C29.9386 17.6312 29.6617 17.6372 29.3847 17.6507C25.7117 19.2289 22.4133 22.7541 20.4628 27.2362C17.5027 34.0381 18.4141 41.2038 22.3212 44.5069C21.7198 41.1767 23.3099 35.0127 25.7069 29.5046C27.8029 24.6882 30.3666 20.5477 32.7241 18.1761L33.5232 18.9657C31.2966 21.2114 28.7624 25.3191 26.7445 29.9562C25.0554 33.8375 23.8894 37.6721 23.4778 40.7534C23.0984 43.5577 23.4429 45.0347 23.958 45.5666C24.1446 45.6523 24.3342 45.7348 24.5229 45.8124C25.2625 45.825 26.578 45.0705 28.3711 42.8829C30.3326 40.4761 32.3513 37.0277 34.0459 33.1336C36.0583 28.5094 37.3371 23.8554 37.4685 20.6826L38.5909 20.7293C38.4566 24.0836 37.1795 28.7688 35.0835 33.5852C32.6775 39.0894 29.2551 44.4575 26.4113 46.2868C31.4902 46.8974 37.3569 42.6798 40.317 35.878C42.2653 31.401 42.5981 26.5928 41.2579 22.8315C41.073 22.612 40.8815 22.3981 40.6839 22.1901L40.6713 22.177C39.9504 21.4077 39.4699 20.4447 39.2888 19.4061C39.1077 18.3675 39.2339 17.2987 39.6518 16.3308L39.8642 15.8428L38.6461 16.4188C38.3854 16.5434 38.1012 16.6111 37.8123 16.6173C37.5234 16.6235 37.2365 16.568 36.9708 16.4547C36.705 16.3413 36.4664 16.1726 36.2709 15.9599C36.0754 15.7471 35.9275 15.4951 35.837 15.2207L35.8332 15.2084L35.4193 13.9084ZM25.7959 18.2722C23.7733 18.8867 21.9084 19.9337 20.3307 21.3407C18.7529 22.7476 17.4999 24.4808 16.6586 26.4201C14.542 31.2839 15.4152 36.9095 18.4308 41.0252C18.1707 40.3452 17.9595 39.6226 17.7963 38.8599C16.9882 35.0802 17.5222 30.7724 19.2837 26.7246C20.8045 23.2302 23.1115 20.2745 25.7959 18.2722ZM31.3632 46.8497C33.9834 46.6175 36.4925 45.6832 38.6265 44.1453C40.7605 42.6073 42.4405 40.5225 43.4896 38.1103C45.26 34.042 45.0344 29.6032 43.2454 25.8964C43.6037 29.2182 43.0117 32.9066 41.496 36.3895C39.7345 40.4373 36.9461 43.764 33.6294 45.7487C32.9073 46.1805 32.149 46.5489 31.3632 46.8497Z" fill="black"/>
</g>
<defs>
<clipPath id="clip0_40_77">
<rect width="44.7038" height="44.7038" fill="white" transform="translate(18.716 0.687012) rotate(23.5179)"/>
</clipPath>
</defs>
</svg>
