<svg width="59" height="60" viewBox="0 0 59 60" fill="none" xmlns="http://www.w3.org/2000/svg">
<g id="Pepper" clip-path="url(#clip0_40_85)">
<path id="Vector" d="M40.5783 39.5135C31.8029 34.7309 29.5803 29.4901 27.9665 23.4674C26.6951 18.7222 22.891 16.1321 19.6679 16.3747C19.4112 16.3942 19.0709 16.4383 18.6902 16.5018C15.2171 15.5954 9.73827 18.6724 9.73827 18.6724C7.02082 16.0971 8.40744 13.8754 8.40744 13.8754C8.49872 12.9794 6.44625 12.7017 5.72918 13.8332C3.81371 16.8478 7.28042 21.719 7.28042 21.719C5.68963 24.9301 6.82465 29.0136 7.41265 30.6847C7.09007 36.495 10.1958 39.6767 14.245 42.2674C20.5619 46.3094 32.9254 52.3645 44.3151 49.3127C47.6245 48.4259 50.8493 46.772 53.8218 44.076C60.6238 37.9105 49.0918 44.1529 40.5783 39.5135ZM43.8335 47.5153C32.4244 50.5723 20.0426 43.7677 15.2484 40.7001C11.2688 38.154 8.7393 35.3626 9.32781 30.0128C9.63321 27.2385 10.2631 26.8255 10.6791 26.5522C11.2349 26.1875 12.5312 25.337 11.9824 23.1738C12.2906 22.699 13.8995 21.9974 14.5175 21.7271C15.9188 21.1158 17.2428 20.5383 17.2924 19.0525C17.296 18.9652 17.2933 18.8488 17.2751 18.715L17.4044 18.6796C18.3189 18.4345 19.306 18.2679 19.8084 18.2304C22.103 18.0571 25.1119 20.0033 26.1691 23.949C27.7947 30.0155 30.0515 35.896 39.6877 41.1477C43.9577 43.475 48.8252 43.3505 52.0615 43.146C49.614 45.239 46.8496 46.7071 43.8335 47.5153Z" fill="black"/>
</g>
<defs>
<clipPath id="clip0_40_85">
<rect width="47.6365" height="47.6365" fill="white" transform="translate(0.523499 13.2708) rotate(-15)"/>
</clipPath>
</defs>
</svg>
