<svg width="35" height="33" viewBox="0 0 35 33" fill="none" xmlns="http://www.w3.org/2000/svg">
<g id="Pizza">
<path id="Vector" d="M17.4658 1.03125C14.3502 1.03721 11.3009 1.87983 8.6748 3.46049L9.29687 4.30934C11.751 2.84174 14.5947 2.0625 17.5 2.0625C19.3662 2.0625 21.2187 2.38348 22.9619 3.01125L23.3926 2.06314C21.5122 1.38094 19.5147 1.03114 17.5 1.03125H17.4658ZM24.5273 2.52141L24.0967 3.46951C27.8086 5.13949 30.6523 8.14687 31.9853 11.8143L33.0312 11.5178C32.0469 7.31543 29.2031 3.95098 24.5273 2.52141ZM17.459 3.28711C14.834 3.2942 12.2568 3.99738 10.0351 5.31674L17.3701 15.3076C19.5029 11.7111 21.1094 7.95996 22.4492 4.13789C20.8701 3.57521 19.1885 3.28711 17.5 3.28711H17.459ZM19.4687 3.86268L20.7744 5.40053L19.8174 6.12563L18.5117 4.58713L19.4687 3.86268ZM7.66308 4.12049C2.5416 6.71602 1.41093 10.6477 1.17577 14.9531L2.26816 15.0176C2.70497 11.0279 4.88495 7.38633 8.28515 4.96869L7.66308 4.12049ZM15.1894 4.57617C15.75 4.57617 16.2695 4.71281 16.6865 4.97578C17.1035 5.23811 17.4385 5.66865 17.4385 6.1875C17.4385 6.70957 17.1035 7.13496 16.6865 7.39922C16.2695 7.66348 15.75 7.79883 15.1894 7.79883C14.6289 7.79883 14.1094 7.66348 13.6924 7.39922C13.2754 7.13496 12.9404 6.70957 12.9404 6.1875C12.9404 5.66865 13.2754 5.23811 13.6924 4.97578C14.1094 4.71281 14.6289 4.57617 15.1894 4.57617ZM23.584 4.59615C22.333 8.41758 20.7334 12.1043 18.5869 15.5848L23.2559 14.2699C23.0371 13.9541 22.9141 13.5674 22.9141 13.1613C22.9141 12.1945 23.6318 11.3051 24.6504 11.3051C25.6689 11.3051 26.3867 12.1945 26.3867 13.1613C26.3867 13.2387 26.3799 13.316 26.373 13.3998L30.7412 12.1687C29.5176 8.84941 26.9404 6.12176 23.584 4.59615ZM15.1894 5.73633C14.8476 5.73633 14.5537 5.82914 14.376 5.94C14.1982 6.05022 14.1709 6.13658 14.1709 6.1875C14.1709 6.23842 14.1982 6.32478 14.376 6.435C14.5537 6.54844 14.8476 6.63867 15.1894 6.63867C15.5312 6.63867 15.8252 6.54844 16.0029 6.435C16.1807 6.32478 16.208 6.23842 16.208 6.1875C16.208 6.13658 16.1807 6.05022 16.0029 5.94C15.8252 5.82914 15.5312 5.73633 15.1894 5.73633ZM9.02343 5.97609C5.94999 8.1791 3.97509 11.4791 3.56562 15.0949C7.84765 15.1336 12.1201 15.2109 16.2764 15.8426L14.9707 14.0637L13.706 14.7146L13.1182 13.6963L14.2666 13.1033L10.3701 7.81172L8.79101 8.99121L8.02538 8.07598L9.66601 6.85137L9.02343 5.97609ZM24.9922 6.86426L25.8262 8.15977L24.7734 8.76562L23.9394 7.47012L24.9922 6.86426ZM17.7119 8.35313L18.2451 9.39727L16.1807 10.3189L15.6475 9.2748L17.7119 8.35313ZM8.43554 9.73242C9.59765 9.73242 10.459 10.7379 10.459 11.8594C10.459 12.9809 9.59765 13.9863 8.43554 13.9863C7.27343 13.9863 6.4121 12.9809 6.4121 11.8594C6.4121 10.7379 7.27343 9.73242 8.43554 9.73242ZM28.8066 10.3318L29.0596 12.1107L27.8428 12.2654L27.5898 10.4865L28.8066 10.3318ZM8.43554 10.8926C8.04589 10.8926 7.64257 11.2729 7.64257 11.8594C7.64257 12.4459 8.04589 12.8262 8.43554 12.8262C8.82519 12.8262 9.22851 12.4459 9.22851 11.8594C9.22851 11.2729 8.82519 10.8926 8.43554 10.8926ZM24.6504 12.4652C24.4316 12.4652 24.1445 12.7166 24.1445 13.1613C24.1445 13.6061 24.4316 13.8574 24.6504 13.8574C24.8691 13.8574 25.1562 13.6061 25.1562 13.1613C25.1562 12.7166 24.8691 12.4652 24.6504 12.4652ZM33.3867 12.6328L32.334 12.9229C32.6484 14.0895 32.8125 15.2947 32.8125 16.5C32.8125 19.5357 31.8008 22.4941 29.9141 24.9563L30.7754 25.5943C32.8125 22.9518 33.9062 19.7678 33.9062 16.5C33.9062 15.198 33.7353 13.8961 33.3867 12.6328ZM31.0898 13.2773L22.6133 15.6686L23.2969 16.1262L22.5859 17.0672L21.123 16.0875L18.8125 16.7385C21.8955 19.5035 25.4912 21.7465 28.8887 24.1957C30.5156 21.9527 31.0352 19.2586 31.5137 16.5C31.6982 15.4236 31.3701 14.3279 31.0898 13.2773ZM1.09853 16.1133C1.09169 16.2422 1.09853 16.3711 1.09169 16.5C0.744427 21.0311 1.71103 25.4396 6.73613 28.1789L7.42382 27.3732C4.09609 24.634 2.18681 20.6701 2.18749 16.5V16.1777L1.09853 16.1133ZM3.48906 16.2551V16.5C3.48906 17.918 3.72968 19.323 4.20341 20.6701L4.95468 19.1555L6.06894 19.6453L4.82958 22.1461C5.64579 23.7768 6.80585 25.227 8.2373 26.4193L16.2695 17.0092L7.44433 16.4871L5.76269 18.0662L4.89316 17.2412L5.79687 16.3904L3.48906 16.2551ZM28.6152 17.0994C28.7725 17.093 28.9297 17.1123 29.0869 17.1639C29.5791 17.3057 29.9277 17.6859 30.0918 18.1178C30.2559 18.5367 30.2559 19.0137 30.0986 19.4842C29.9482 19.9482 29.6475 20.3414 29.2646 20.6057C28.8682 20.857 28.3555 20.9859 27.8564 20.8377C27.6787 20.7861 27.5215 20.7023 27.3848 20.5992L26.8516 21.1729L24.9648 19.6389L25.7715 18.7623L26.7627 19.568C26.6943 19.2264 26.7217 18.8654 26.8379 18.5174C26.9951 18.0469 27.2891 17.6602 27.6787 17.4023C27.9521 17.2219 28.2803 17.1059 28.6152 17.0994ZM10.7666 17.4539L12.7969 18.1758L12.3594 19.2586L10.3291 18.5367L10.7666 17.4539ZM18.1973 17.7504L18.5596 23.2031C18.8877 23.2676 19.1885 23.3707 19.4551 23.5189C19.9131 23.7703 20.3027 24.2021 20.3027 24.75C20.3027 25.2979 19.9131 25.7297 19.4551 25.9811C19.2432 26.0971 19.0107 26.1873 18.7646 26.2518L18.9902 29.6355C19.749 29.5582 20.4941 29.4229 21.2256 29.2359L21.4648 27.3604L22.6816 27.5021L22.5107 28.8363C24.6846 28.0564 26.6123 26.7738 28.1299 25.1109C26.7148 24.0604 25.0264 23.3127 23.8779 21.9592L23.3857 23.2547L22.2236 22.868L22.8525 21.1986C20.9248 20.2963 19.7217 18.917 18.1973 17.7504ZM16.9873 18.0275L9.19433 27.1412C11.6006 28.8105 14.5127 29.7129 17.5 29.7129H17.7598L17.5342 26.3484C17.042 26.3162 16.5908 26.1938 16.2148 25.9811C15.7568 25.7297 15.3672 25.2979 15.3672 24.75C15.3672 24.2021 15.7568 23.7703 16.2148 23.5189C16.5361 23.3385 16.9189 23.2225 17.3291 23.1709L16.9873 18.0275ZM28.6494 18.2596C28.581 18.2531 28.499 18.2789 28.3896 18.3434C28.2461 18.44 28.0957 18.627 28.0137 18.8654C27.9385 19.1039 27.9521 19.3359 28.0068 19.4906C28.0684 19.6453 28.1504 19.7098 28.2256 19.7291C28.3076 19.7549 28.4102 19.742 28.5537 19.6518C28.6904 19.5615 28.8477 19.3746 28.9297 19.1361C29.0049 18.8977 28.9912 18.6592 28.9365 18.5109C28.875 18.3563 28.793 18.2918 28.7178 18.266C28.6973 18.2596 28.6768 18.2596 28.6494 18.2596ZM8.5996 20.1867C8.89355 20.1932 9.18749 20.2576 9.46093 20.3801C10.4385 20.8248 10.917 21.9334 10.4453 22.8551C9.97363 23.7832 8.75683 24.1248 7.77929 23.6801C6.80038 23.2354 6.32597 22.1332 6.79628 21.2051C7.13671 20.5412 7.85449 20.1803 8.5996 20.1867ZM8.53808 21.3404C8.26464 21.3469 8.01855 21.4822 7.90234 21.7078C7.73827 22.0365 7.8955 22.449 8.31249 22.6359C8.72949 22.8229 9.16699 22.6811 9.33788 22.3523C9.50195 22.0301 9.34472 21.6176 8.92773 21.4307C8.79785 21.3662 8.66113 21.3404 8.53808 21.3404ZM17.835 24.2988C17.4248 24.2988 17.0557 24.402 16.8369 24.518C16.6182 24.6404 16.5976 24.7307 16.5976 24.75C16.5976 24.7693 16.6182 24.8596 16.8369 24.982C17.0557 25.098 17.4248 25.2012 17.835 25.2012C18.2451 25.2012 18.6143 25.098 18.833 24.982C19.0518 24.8596 19.0723 24.7693 19.0723 24.75C19.0723 24.7307 19.0518 24.6404 18.833 24.518C18.6143 24.402 18.2451 24.2988 17.835 24.2988ZM29.1484 25.8715C26.5918 28.6945 22.9893 30.4799 19.0723 30.8602L19.1406 31.8914C23.5156 32.1041 27.6582 31.1631 30.0098 26.5096L29.1484 25.8715ZM12.3389 26.0648L14.2598 26.2324L14.1504 27.3926L12.2295 27.225L12.3389 26.0648ZM8.38085 28.0951L7.69726 28.9008C10.165 31.8012 13.8633 32.233 17.5 31.9688C17.6367 31.9559 17.7734 31.9688 17.9102 31.9623L17.8418 30.9311C17.7256 30.9375 17.6162 30.9375 17.5 30.9375C14.2187 30.9375 11.0195 29.9385 8.38085 28.0951Z" fill="white"/>
</g>
</svg>
