<svg width="25" height="25" viewBox="0 0 25 25" fill="none" xmlns="http://www.w3.org/2000/svg">
<g id="Shopping Cart">
<path id="Vector" d="M7.29167 22.9167C6.71875 22.9167 6.22813 22.7125 5.81979 22.3042C5.41146 21.8958 5.20764 21.4056 5.20833 20.8333C5.20833 20.2604 5.4125 19.7698 5.82083 19.3615C6.22917 18.9531 6.71945 18.7493 7.29167 18.75C7.86458 18.75 8.35521 18.9542 8.76354 19.3625C9.17188 19.7708 9.3757 20.2611 9.375 20.8333C9.375 21.4063 9.17083 21.8969 8.7625 22.3052C8.35417 22.7136 7.86389 22.9174 7.29167 22.9167ZM17.7083 22.9167C17.1354 22.9167 16.6448 22.7125 16.2365 22.3042C15.8281 21.8958 15.6243 21.4056 15.625 20.8333C15.625 20.2604 15.8292 19.7698 16.2375 19.3615C16.6458 18.9531 17.1361 18.7493 17.7083 18.75C18.2812 18.75 18.7719 18.9542 19.1802 19.3625C19.5885 19.7708 19.7924 20.2611 19.7917 20.8333C19.7917 21.4063 19.5875 21.8969 19.1792 22.3052C18.7708 22.7136 18.2806 22.9174 17.7083 22.9167ZM5.41667 4.16668H20.7813C21.1806 4.16668 21.4844 4.3448 21.6927 4.70105C21.901 5.0573 21.9097 5.41737 21.7188 5.78126L18.0208 12.4479C17.8299 12.7951 17.5736 13.0642 17.2521 13.2552C16.9306 13.4462 16.5792 13.5417 16.1979 13.5417H8.4375L7.29167 15.625H19.7917V17.7083H7.29167C6.51042 17.7083 5.92014 17.3653 5.52083 16.6792C5.12153 15.9931 5.10417 15.3118 5.46875 14.6354L6.875 12.0833L3.125 4.16668H1.04167V2.08334H4.42708L5.41667 4.16668Z" fill="white"/>
</g>
</svg>
