<svg width="40" height="40" viewBox="0 0 40 40" fill="none" xmlns="http://www.w3.org/2000/svg">
<g id="Star">
<path id="Vector" d="M12.9802 32.9411C12.6019 33.1693 12.1352 32.8307 12.2348 32.4003L13.6067 26.4695C13.8989 25.2065 13.469 23.8854 12.4895 23.0362L7.88586 19.045C7.5521 18.7557 7.73007 18.2073 8.17015 18.1691L14.2628 17.6402C15.5549 17.5281 16.6791 16.7106 17.184 15.5159L19.5394 9.94278C19.7115 9.53564 20.2885 9.53565 20.4605 9.94278L22.816 15.5159C23.3209 16.7106 24.445 17.5281 25.7372 17.6402L31.8298 18.1691C32.2699 18.2073 32.4479 18.7557 32.1141 19.045L27.5105 23.0362C26.531 23.8854 26.1011 25.2065 26.3933 26.4695L27.7652 32.4003C27.8647 32.8307 27.398 33.1693 27.0198 32.9411L21.8078 29.7971C20.6959 29.1264 19.304 29.1264 18.1921 29.7971L12.9802 32.9411Z" fill="#E93037" stroke="black" stroke-width="3"/>
</g>
</svg>
