<svg width="68" height="68" viewBox="0 0 68 68" fill="none" xmlns="http://www.w3.org/2000/svg">
<g id="tabler:salt" clip-path="url(#clip0_41_246)">
<g id="Group">
<path id="Vector" d="M33.5151 36.0887L33.5066 36.1083M27.0642 40.2448L27.0557 40.2643M34.8704 43.6419L34.8619 43.6614M28.9796 22.5093L46.5435 30.1528L47.9043 25.5271C48.1972 24.5316 48.1163 23.4634 47.677 22.5233C47.2376 21.5833 46.47 20.836 45.5184 20.4222L36.7989 16.6276C35.8474 16.2127 34.777 16.1598 33.7892 16.4788C32.8014 16.7979 31.9643 17.4669 31.4352 18.36L28.9796 22.5093Z" stroke="black" stroke-width="3.33333" stroke-linecap="round" stroke-linejoin="round"/>
<path id="Vector_2" d="M28.9796 22.5094L17.6203 40.0137C17.2837 40.5323 17.0641 41.118 16.9768 41.7301C16.8895 42.3422 16.9366 42.966 17.1148 43.558C17.293 44.1501 17.5981 44.6962 18.0087 45.1584C18.4194 45.6206 18.9258 45.9878 19.4928 46.2344L35.6476 53.2648C36.2145 53.5116 36.8284 53.6319 37.4465 53.6174C38.0646 53.6029 38.6721 53.4539 39.2268 53.1808C39.7815 52.9077 40.2701 52.517 40.6585 52.036C41.0469 51.5549 41.3259 50.9951 41.476 50.3953L46.5435 30.1529" stroke="black" stroke-width="3.33333" stroke-linecap="round" stroke-linejoin="round"/>
</g>
</g>
<defs>
<clipPath id="clip0_41_246">
<rect width="51.0799" height="51.0799" fill="white" transform="translate(21.1373 0.527344) rotate(23.5179)"/>
</clipPath>
</defs>
</svg>
