<svg width="56" height="56" viewBox="0 0 56 56" fill="none" xmlns="http://www.w3.org/2000/svg">
<g id="Tomato" clip-path="url(#clip0_37_55)">
<path id="Vector" d="M48.3407 21.8664C43.6796 7.76619 35.7204 7.65465 29.7557 9.25214C28.2489 9.65664 26.8698 10.1688 25.7032 10.5935C25.5185 9.94493 25.3594 9.23996 25.2622 8.43981C25.2614 8.4284 25.2541 8.42016 25.25 8.41034C25.2499 8.40454 25.2511 8.39838 25.2497 8.39295C25.1854 8.1532 24.6822 8.07912 24.124 8.22871C23.5671 8.37793 23.1683 8.69369 23.2326 8.93344C23.288 9.75139 23.2849 10.5723 23.2232 11.3898C15.3665 13.546 5.33482 17.5719 7.57653 32.2679C9.20415 42.9334 21.8346 49.6061 33.2154 46.5567C44.5962 43.5072 51.7281 32.1149 48.3407 21.8664ZM26.6651 12.4883C26.9363 12.3894 27.2176 12.2871 27.5073 12.184C27.1898 12.4226 26.884 12.664 26.5987 12.9006C26.5462 12.7997 26.4957 12.6763 26.4434 12.5681L26.6651 12.4883ZM22.9329 13.6615C22.8937 13.8708 22.8544 14.072 22.8147 14.2581C22.5658 14.1305 22.3091 14.0189 22.046 13.9239C22.3408 13.834 22.6364 13.7475 22.9329 13.6615ZM45.0505 34.8876C42.5187 39.5791 38.0057 43.0893 32.6694 44.5192C27.2314 45.9763 21.185 45.0166 16.4943 41.9525C12.6936 39.4688 10.2671 35.9167 9.66186 31.9493C8.52621 24.5026 10.8002 20.1911 14.4681 17.4547C18.2486 15.6497 22.3558 16.0036 22.3558 16.0036C22.3558 16.0036 13.2805 16.1715 12.8733 27.9988C15.3185 20.3271 23.0611 20.3176 24.3155 17.3951C25.5656 22.0603 28.3494 18.8882 30.626 20.5304C33.5545 22.6414 35.6585 27.2663 38.45 27.5404C34.5151 22.847 38.6611 21.9603 30.9862 16.3029C34.5172 17.3724 35.5768 15.0488 40.1643 15.6358C35.079 10.803 29.8694 13.9903 29.8694 13.9903C29.8694 13.9903 31.6096 11.2755 34.0662 10.6798C38.4482 10.5379 43.1095 12.7618 46.3387 22.5287C47.6565 26.5177 47.1991 30.9067 45.0505 34.8876Z" fill="black"/>
</g>
<defs>
<clipPath id="clip0_37_55">
<rect width="45" height="45" fill="white" transform="translate(0.5 11.647) rotate(-15)"/>
</clipPath>
</defs>
</svg>
