<svg width="231" height="231" viewBox="0 0 231 231" fill="none" xmlns="http://www.w3.org/2000/svg">
<path id="Vector" d="M178.352 9.61399C197.8 19.338 212.672 38.214 221.824 59.378C230.69 80.542 233.55 104.28 228.116 124.872C222.396 145.75 208.382 163.482 194.082 182.644C179.782 201.806 165.482 222.398 146.606 228.404C127.73 234.41 104.278 225.544 82.256 216.392C60.52 207.526 40.5 198.66 26.772 183.502C13.044 168.344 5.894 147.466 2.462 125.444C-1.256 103.708 -0.969998 81.114 7.61 62.524C16.476 43.934 33.636 29.348 52.512 19.624C71.102 9.89998 91.694 4.75198 113.43 2.17798C135.452 -0.110018 158.904 0.175989 178.352 9.61399Z" fill="#E85D04"/>
</svg>
