<svg width="201" height="77" viewBox="0 0 201 77" fill="none" xmlns="http://www.w3.org/2000/svg">
<g id="Yelp svg" clip-path="url(#clip0_61_113)">
<g id="Group">
<path id="Vector" d="M162.728 45.1189L166.018 44.3497C166.078 44.3295 166.199 44.3092 166.34 44.2687C167.249 44.0258 168.015 43.4388 168.5 42.6291C168.984 41.8195 169.145 40.8681 168.923 39.937C168.923 39.9167 168.923 39.8965 168.903 39.8762C168.802 39.4309 168.6 39.0261 168.338 38.6415C167.975 38.1759 167.511 37.7913 167.006 37.4877C166.401 37.1436 165.755 36.84 165.11 36.5971L161.518 35.2813C159.5 34.5324 157.482 33.8037 155.444 33.075C154.112 32.6094 153.002 32.1843 152.034 31.8807C151.852 31.82 151.65 31.7593 151.489 31.7188C150.319 31.3544 149.491 31.2127 148.785 31.1925C148.321 31.1722 147.857 31.2532 147.413 31.4354C146.969 31.6378 146.565 31.9212 146.222 32.2855C146.061 32.4677 145.899 32.6701 145.758 32.8726C145.617 33.075 145.496 33.2976 145.395 33.5203C145.274 33.7632 145.173 34.0061 145.072 34.249C144.406 36.2327 144.063 38.3176 144.083 40.4025C144.104 42.285 144.144 44.714 145.173 46.3536C145.415 46.7787 145.758 47.1431 146.162 47.4265C146.908 47.9325 147.655 48.0135 148.422 48.0539C149.572 48.1349 150.702 47.8515 151.832 47.5884L162.728 45.1189Z" fill="#FF1A1A"/>
<path id="Vector_2" d="M199.353 27.6299C198.465 25.7474 197.254 24.0269 195.781 22.529C195.6 22.3468 195.398 22.1646 195.176 22.0027C194.974 21.861 194.772 21.7193 194.55 21.5776C194.328 21.4562 194.106 21.355 193.884 21.2538C193.42 21.0716 192.936 20.9906 192.452 21.0108C191.988 21.0311 191.523 21.1728 191.12 21.3954C190.494 21.6991 189.808 22.2051 188.92 23.0553C188.799 23.1767 188.638 23.3184 188.497 23.4601C187.75 24.1686 186.923 25.0187 185.934 26.0308C184.421 27.5692 182.907 29.1278 181.434 30.6865L178.771 33.4596C178.286 33.9656 177.842 34.5122 177.439 35.0992C177.096 35.585 176.854 36.1518 176.732 36.7185C176.652 37.1638 176.672 37.6294 176.773 38.0747C176.773 38.095 176.773 38.1152 176.793 38.1355C176.995 39.0463 177.56 39.856 178.347 40.3621C179.134 40.8681 180.082 41.0705 181.01 40.8883C181.152 40.8681 181.273 40.8479 181.333 40.8276L195.519 37.5282C196.629 37.2651 197.779 37.0222 198.768 36.4554C199.434 36.0708 200.079 35.6659 200.523 34.8968C200.765 34.4717 200.907 33.9859 200.947 33.5001C201.169 31.5569 200.16 29.3505 199.353 27.6299Z" fill="#FF1A1A"/>
<path id="Vector_3" d="M173.948 33.6216C174.977 32.3261 174.977 30.4031 175.058 28.804C175.36 23.5209 175.683 18.258 175.945 12.9749C176.046 10.9709 176.268 9.00748 176.147 6.98329C176.046 5.32346 176.046 3.42073 174.997 2.04428C173.141 -0.364497 169.206 -0.162079 166.522 0.202275C165.695 0.323726 164.867 0.465419 164.06 0.667837C163.253 0.870256 162.426 1.07267 161.639 1.33582C159.056 2.18598 155.444 3.7446 154.818 6.72015C154.475 8.40022 155.282 10.1208 155.928 11.6592C156.695 13.5214 157.744 15.2015 158.713 16.9625C161.255 21.5979 163.838 26.1928 166.421 30.808C167.188 32.1844 168.035 33.9252 169.529 34.6337C169.63 34.6741 169.73 34.7146 169.831 34.7551C170.497 35.0183 171.224 35.0587 171.93 34.8968C171.97 34.8968 172.011 34.8766 172.051 34.8766C172.697 34.6944 173.282 34.3503 173.726 33.8645C173.786 33.7835 173.867 33.7025 173.948 33.6216Z" fill="#FF1A1A"/>
<path id="Vector_4" d="M172.717 47.7503C172.313 47.1836 171.748 46.7585 171.082 46.5358C170.417 46.3132 169.71 46.3132 169.044 46.5156C168.883 46.5763 168.742 46.637 168.6 46.6978C168.378 46.8192 168.157 46.9407 167.955 47.1026C167.37 47.5479 166.865 48.1147 166.421 48.6815C166.3 48.8232 166.199 49.0256 166.058 49.147L163.778 52.3048C162.486 54.0658 161.215 55.8471 159.944 57.6284C159.116 58.7821 158.41 59.774 157.845 60.6444C157.744 60.8063 157.623 60.9885 157.522 61.1302C156.836 62.1828 156.473 62.952 156.271 63.6199C156.13 64.0653 156.069 64.5511 156.13 65.0166C156.191 65.5024 156.352 65.9882 156.614 66.4133C156.756 66.636 156.897 66.8384 157.058 67.0206C157.22 67.2028 157.401 67.3849 157.583 67.5671C157.785 67.7493 157.986 67.9315 158.208 68.0732C159.782 69.1662 161.518 69.9557 163.334 70.5832C164.847 71.0892 166.421 71.3928 167.995 71.4738C168.257 71.494 168.54 71.4738 168.802 71.4535C169.044 71.4333 169.307 71.3928 169.549 71.3523C169.791 71.2916 170.033 71.2309 170.275 71.1499C170.739 70.9677 171.163 70.7046 171.506 70.3605C171.849 70.0164 172.091 69.6115 172.253 69.1662C172.515 68.4982 172.697 67.6683 172.798 66.4336C172.798 66.2514 172.838 66.049 172.858 65.8466C172.939 64.8142 172.999 63.5997 173.06 62.1828C173.181 59.9967 173.262 57.8105 173.322 55.6244L173.464 51.738C173.504 50.8473 173.464 49.8555 173.221 48.9648C173.12 48.5398 172.959 48.1349 172.717 47.7503Z" fill="#FF1A1A"/>
<path id="Vector_5" d="M198.485 53.843C198.001 53.3167 197.335 52.7904 196.265 52.1426C196.104 52.0617 195.922 51.9402 195.761 51.839C194.873 51.3127 193.804 50.746 192.553 50.0577C190.636 49.0052 188.719 47.9728 186.781 46.9607L183.351 45.139C183.169 45.0782 182.988 44.9568 182.826 44.8758C182.161 44.5519 181.474 44.2686 180.748 44.1269C180.506 44.0864 180.244 44.0459 180.001 44.0459C179.84 44.0459 179.679 44.0459 179.517 44.0661C178.831 44.1673 178.206 44.4912 177.701 44.977C177.217 45.4628 176.874 46.0903 176.773 46.7785C176.712 47.2239 176.732 47.6489 176.813 48.0943C176.975 49.0052 177.378 49.916 177.802 50.7055L179.638 54.1466C180.647 56.0898 181.676 58.0128 182.746 59.9358C183.432 61.1907 183.997 62.2636 184.521 63.1542C184.622 63.3161 184.743 63.4983 184.824 63.6603C185.47 64.7331 185.994 65.4011 186.519 65.8869C186.862 66.2107 187.266 66.4739 187.71 66.6156C188.174 66.7775 188.678 66.818 189.163 66.7775C189.405 66.7573 189.667 66.6965 189.909 66.656C190.151 66.5953 190.393 66.5144 190.615 66.4131C190.878 66.3119 191.12 66.2107 191.342 66.069C192.734 65.2796 194.005 64.3282 195.156 63.2149C196.528 61.8587 197.718 60.4013 198.667 58.7212C198.788 58.4783 198.909 58.2354 199.01 57.9723C199.09 57.7294 199.171 57.5067 199.232 57.2638C199.292 57.0209 199.333 56.7578 199.353 56.5149C199.393 56.0291 199.333 55.523 199.191 55.0575C199.07 54.5919 198.808 54.1871 198.485 53.843Z" fill="#FF1A1A"/>
<path id="Vector_6" fill-rule="evenodd" clip-rule="evenodd" d="M80.7021 20.4442C80.7021 17.6103 83.0024 15.3027 85.7669 15.3027C88.5112 15.3027 90.7107 17.6103 90.8318 20.4846V60.6242C90.8318 63.4581 88.5314 65.7657 85.7669 65.7657C82.9217 65.7657 80.7021 63.4581 80.7021 60.6242V20.4442ZM76.0004 45.2202C75.9601 46.0096 75.7583 47.4873 74.7292 48.5601C73.6193 49.7139 72.1059 49.9973 71.2383 49.9973C67.6061 50.0175 63.9941 50.0175 60.3619 50.0378C56.7298 50.0378 53.1178 50.058 49.4856 50.0782C49.8085 51.0701 50.434 52.5882 51.8667 53.9849C52.7344 54.8148 53.5617 55.3006 53.9249 55.5031C54.3689 55.7864 55.8621 56.5759 57.7387 56.5759C59.7162 56.5759 61.4718 55.9281 63.1668 55.0577L63.308 54.9768C64.4986 54.3695 65.7093 53.7218 67.0007 53.4991C68.272 53.2967 69.624 53.5396 70.6127 54.41C71.8033 55.4423 72.2674 56.9605 71.8436 58.5191C71.319 60.2801 69.8661 61.778 68.3123 62.7091C67.4447 63.2354 66.4963 63.6605 65.5479 64.0249C64.317 64.4702 63.0457 64.7738 61.7744 64.9762C60.5032 65.1787 59.1916 65.2596 57.9001 65.2191C57.2746 65.2191 56.5885 65.2191 55.9226 65.1382C55.2164 65.0572 54.4899 64.8953 53.824 64.7333C52.7142 64.4904 51.6851 64.1261 50.656 63.6605C49.6672 63.2152 48.6785 62.6687 47.7704 62.0209C46.8624 61.3732 46.0351 60.6242 45.2279 59.8348C44.4813 59.0454 43.7549 58.1547 43.1293 57.2034C40.9904 53.9444 40.0016 49.9163 40.2034 46.0096C40.3648 42.1839 41.6361 38.3582 43.9365 35.241C44.1786 34.8564 44.4813 34.5123 44.7436 34.2086C44.8647 34.0669 44.9858 33.9455 45.0867 33.8038C47.9319 30.3222 51.7255 29.2291 53.2792 28.7636L53.3599 28.7433C57.8396 27.4681 61.5525 28.298 63.0659 28.7433C63.8125 28.9457 68.05 30.2615 71.3391 33.8038C71.5006 33.9657 71.9243 34.4718 72.4893 35.241C74.5677 38.0951 75.2942 40.7467 75.5363 41.6374V41.6576C75.7583 42.5483 76.0004 43.7425 76.0004 45.2202ZM52.7344 38.6416C50.434 40.5241 49.8085 42.9126 49.647 43.6616H66.92C66.7586 42.9531 66.0927 40.5038 63.7923 38.6416C61.4516 36.7591 58.9898 36.6579 58.2432 36.6579C57.4764 36.6579 55.0348 36.7793 52.7344 38.6416ZM118.436 28.0956C113.916 28.0956 109.8 30.1198 106.874 33.4394V33.318C106.753 30.6461 104.533 28.5004 101.849 28.5004C99.0445 28.5004 96.7845 30.7675 96.7845 33.6014V71.899C96.7845 74.7328 99.0445 76.9999 101.849 76.9999C104.654 76.9999 106.914 74.7328 106.914 71.899V70.4213V59.936C109.84 63.195 113.936 65.2799 118.477 65.2799C127.557 65.2799 134.922 57.0212 134.922 46.7383C134.882 36.4555 127.517 28.0956 118.436 28.0956ZM116.217 56.9402C111.071 56.9402 106.874 52.4263 106.874 46.8193C106.874 41.1516 111.031 36.6579 116.217 36.6579C121.362 36.6579 125.559 41.1718 125.559 46.8193C125.519 52.4465 121.362 56.9402 116.217 56.9402ZM32.5557 49.4103L30.901 53.074C30.1544 54.6731 29.3876 56.3127 28.6814 57.9321C28.4594 58.4381 28.2173 58.9442 27.9953 59.4705C24.8272 66.5349 21.074 74.9352 12.8815 76.7165C8.92643 77.5869 2.93336 76.3926 0.713702 72.6479C-1.50595 68.8627 1.78317 64.5107 6.0207 65.5228C6.6866 65.6645 7.35249 66.0086 8.01839 66.3324C9.12822 66.879 10.238 67.4457 11.4488 67.2028C12.599 67.0004 13.3052 66.1705 14.2133 65.0977C15.4845 63.62 16.0293 62.0614 16.2715 61.1505C16.2513 61.11 16.2311 61.0696 16.2109 61.0088C16.1908 60.9683 16.1706 60.9076 16.1504 60.8671C15.1213 58.9442 14.2133 57.2034 13.4666 55.7662C12.9824 54.8351 12.5586 54.0052 12.1954 53.3372C11.4488 51.9405 10.9039 50.8677 10.46 50.058C9.18876 47.6492 8.98697 47.2444 8.42196 46.212C7.19106 43.864 5.87945 41.5969 4.54766 39.3096C3.07461 36.8401 1.58139 34.0872 2.81229 31.1723C3.80104 28.8243 6.34356 27.63 8.765 28.379C11.2873 29.1482 12.4173 31.5772 13.4868 33.8645C13.6684 34.2694 13.8702 34.6742 14.0518 35.079C15.7468 38.4594 17.4217 41.86 19.0763 45.2404C19.2176 45.5845 19.4395 46.0299 19.722 46.5966C19.9642 47.1027 20.2467 47.6695 20.5494 48.3172C20.7108 48.6411 20.852 48.9649 20.9933 49.2281C21.1749 49.5924 21.3162 49.8961 21.417 50.139C22.1838 48.1957 22.9708 46.2728 23.7578 44.3498C24.5447 42.4268 25.3317 40.5038 26.0985 38.5606C26.1187 38.4594 26.3003 38.0343 26.5828 37.4271C26.8249 36.9008 27.1276 36.2328 27.4505 35.4636C27.5514 35.2005 27.6724 34.9373 27.7935 34.6539C28.8226 32.144 30.0535 29.1077 32.7978 28.298C34.7753 27.6907 36.995 28.5004 38.1452 30.1805C38.7304 31.0104 38.9725 31.982 39.0129 32.9334C39.0532 35.0588 38.0241 37.3259 37.1564 39.2691C36.9345 39.7346 36.7327 40.2002 36.5511 40.6253C36.5511 40.6455 36.5107 40.7265 36.4502 40.8682C36.208 41.4147 35.5421 42.8924 34.4121 45.3416C34.0086 46.212 33.605 47.0824 33.2216 47.9731C32.9996 48.4386 32.7777 48.9244 32.5557 49.4103Z" fill="black"/>
<path id="Vector_7" d="M138.756 61.9197H139.119C139.301 61.9197 139.442 61.8792 139.563 61.778C139.664 61.6768 139.725 61.5553 139.725 61.4137C139.725 61.2517 139.684 61.1303 139.583 61.0493C139.483 60.9683 139.341 60.9278 139.119 60.9278H138.756V61.9197ZM140.229 61.4137C140.229 61.5958 140.189 61.7578 140.088 61.8995C139.987 62.0411 139.866 62.1424 139.684 62.2031L140.492 63.5593H139.927L139.22 62.3448H138.756V63.5593H138.252V60.523H139.14C139.523 60.523 139.785 60.604 139.967 60.7457C140.148 60.8874 140.229 61.11 140.229 61.4137ZM136.637 62.0209C136.637 61.5756 136.758 61.1303 136.98 60.7457C137.202 60.3408 137.525 60.0372 137.909 59.7943C138.312 59.5716 138.736 59.4502 139.2 59.4502C139.644 59.4502 140.088 59.5716 140.471 59.7943C140.875 60.017 141.178 60.3408 141.42 60.7254C141.642 61.1303 141.763 61.5553 141.763 62.0209C141.763 62.4662 141.662 62.8913 141.44 63.2759C141.218 63.6605 140.915 63.9844 140.512 64.2273C140.108 64.4702 139.684 64.5916 139.2 64.5916C138.736 64.5916 138.292 64.4702 137.909 64.2475C137.505 64.0046 137.202 63.701 136.98 63.2961C136.758 62.8913 136.637 62.4865 136.637 62.0209ZM137.001 62.0209C137.001 62.4055 137.101 62.7901 137.303 63.1342C137.505 63.4783 137.767 63.7415 138.11 63.9439C138.453 64.1463 138.817 64.2273 139.2 64.2273C139.604 64.2273 139.967 64.1261 140.29 63.9236C140.633 63.7212 140.895 63.4581 141.097 63.114C141.299 62.7699 141.4 62.4055 141.4 62.0007C141.4 61.5958 141.299 61.2315 141.097 60.9076C140.895 60.5635 140.633 60.3003 140.29 60.0979C139.947 59.8955 139.583 59.7943 139.18 59.7943C138.776 59.7943 138.413 59.8955 138.09 60.0979C137.747 60.3003 137.485 60.5635 137.283 60.9076C137.102 61.2517 137.001 61.6363 137.001 62.0209Z" fill="black"/>
</g>
</g>
<defs>
<clipPath id="clip0_61_113">
<rect width="201" height="77" fill="white"/>
</clipPath>
</defs>
</svg>
